<svg width="2048" height="2048" viewBox="0 0 2048 2048" fill="none" xmlns="http://www.w3.org/2000/svg">
<path d="M612.02 891.7C613.99 891.6 614.66 896.73 614.31 898.54C613.88 900.73 610.74 901.8 607.84 901.86C581.96 902.38 577.04 930.38 577.09 951.04L577.21 999.99C577.3 1036.22 566.94 1073.68 529.61 1086.83C510.99 1093.39 492.2 1095.53 471.66 1095.3C472.07 1112.61 468.91 1139.83 477.19 1154.83C481.4 1161.86 487.6 1167.44 495.97 1168.84L512.49 1171.6C515.15 1172.04 515.23 1179.93 512.01 1179.93L387.2 1179.96C385.53 1178.36 385.57 1172.33 387.72 1171.94L402.44 1169.27C423.1 1165.52 427.36 1145.27 427.25 1127.03L427.06 1095.58C390.35 1094.4 350.31 1091.34 332.82 1053.94C325.93 1039.2 322.7 1023.55 322.64 1007L322.42 940.47C322.4 933.07 320.8 925.53 317.96 919.12C307.76 896.07 286.48 905.31 285.53 897.65C285.25 895.35 286.41 890.78 288.76 891L305.47 892.52C322.44 894.06 338.75 900.82 351.43 912.54C363.04 923.27 369.29 938.31 370.86 954.05C373.71 982.58 369.63 1003.26 373.97 1035.16C376.67 1054.97 384.39 1075.46 404.98 1081.92C412.22 1084.19 419.58 1084.78 427.17 1084.37L427.27 946.2C427.28 931.44 421.64 914.01 405.33 911.88L390.85 909.99C389.04 909.12 389.14 904.43 390.3 901.68H510.14C512.31 902.41 511.94 909.16 510.1 910.36C506.52 910.79 502.7 911.09 498.96 911.29C476.58 912.47 471.81 933.31 471.81 952.16L471.83 1084.32C480.93 1084.56 489.97 1083.92 498.28 1080.07C523 1068.63 527.73 1036.52 527.88 1012.05L528.17 964.95C528.29 946.05 534.68 927.54 547.78 913.88C564.71 896.23 587.39 892.93 612.01 891.74L612.02 891.7Z" fill="#1A4B50"/>
<path d="M629.41 1184.26C627.98 1184.26 627.1 1179.64 627.68 1178.48C629.85 1174.06 647.23 1176.97 652.55 1162.7C655.07 1155.93 655.54 1148.63 655.54 1140.91V987.11C655.53 972.8 655.43 955.73 639.01 953.22L629.01 951.69C628.84 949.58 628.85 946.38 629.03 943.89L691.3 939.93L692.06 960.13C705.79 945.1 722.29 937.52 742.07 937.19C775.25 936.63 800.67 956.5 807.3 988.87C815.23 1027.59 806.69 1077.27 770.22 1099.12C745.85 1113.73 716.72 1112.97 691.66 1098.16C691.04 1114.89 691.02 1130.76 691.83 1146.99C692.22 1154.77 694.64 1161.95 698.93 1168.01C704.23 1173.64 710.77 1175.84 718.67 1176.36C720.94 1176.51 721.22 1184.26 718.94 1184.26H629.42H629.41ZM749.33 1087.37C757.87 1078.05 763.34 1067.09 766.59 1054.79C773.51 1028.67 774.72 987.28 758.61 964.53C744.81 945.04 716.34 949 703.79 963.78C695.22 973.87 691.03 986.62 691.04 1000.03L691.1 1071.01C691.1 1077.03 695.1 1081.94 699.1 1085.89C714.13 1100.73 735.01 1102.98 749.33 1087.37Z" fill="#1A4B50"/>
<path d="M1594.23 1070.56C1593.1 1042.85 1611.46 1029.84 1635.63 1021.29L1665.14 1010.85C1673.96 1007.73 1684.52 1003 1689.42 994.72C1692.65 983.16 1692.15 960.95 1679.85 953.2C1665.11 943.91 1641.07 947.34 1637.09 960C1634.18 969.26 1647.39 973.11 1643.67 985.85C1642.43 990.08 1639.08 994.82 1634.42 997.39C1623.82 1003.24 1611.14 999.65 1606.54 988.19C1601.94 976.73 1605.18 963.21 1614.36 954.33C1629.29 939.88 1652.55 936.59 1672.6 937.3C1699.07 938.24 1726.15 950.97 1726.24 981.1L1726.51 1074.72C1726.53 1081.29 1728.11 1088.57 1733.21 1092.71C1740.9 1098.96 1750.78 1087.17 1754.19 1092.38C1756.02 1095.17 1755.64 1098.12 1753.09 1100.23C1742.57 1106.19 1731.24 1110.32 1719.04 1110.13C1705.28 1109.92 1693.81 1102.06 1690.18 1088.52C1673.42 1106.71 1649.65 1113.25 1626.25 1108.85C1606.97 1105.23 1595.01 1089.77 1594.23 1070.57V1070.56ZM1639.46 1085.99C1647.97 1096.32 1662.9 1096.22 1673.29 1090.05C1680.44 1085.8 1685.71 1080.04 1690.47 1073.37L1690.39 1010.41L1660.13 1026.33C1652.55 1030.32 1646.31 1035.13 1640.11 1041.34C1630.7 1053.86 1628.78 1073.05 1639.45 1085.99H1639.46Z" fill="#1A4B50"/>
<path d="M1085.94 1029.17C1103.08 1019.07 1123.84 1017.34 1144.79 1004.62C1148.92 1002.11 1155.78 998.4 1157.01 993.54C1160.09 981.4 1159.01 957.9 1143.37 950.78C1131.77 945.5 1117.48 946.86 1107.68 954.32C1102.05 958.61 1101.97 965.02 1105.99 970.03C1110.01 975.04 1111.8 980.45 1109.78 986.8C1108.36 991.27 1104.75 996.04 1099.38 998.39C1088.42 1003.18 1075.96 998.53 1072.17 986.92C1068.13 974.54 1072.23 961.46 1082.12 953C1101.24 936.63 1135.76 934.41 1159.46 940.16C1181.16 945.43 1193.4 959.21 1193.47 982.1L1193.76 1076.98C1193.77 1081.13 1195.1 1085.86 1196.92 1088.98C1201.04 1096.06 1208.71 1096.35 1215.03 1091.79C1216.57 1090.68 1219.47 1090.14 1220.73 1090.92C1222.35 1091.91 1224.01 1095.97 1222.52 1097.22C1214.82 1103.66 1206.18 1106.72 1196.71 1108.91C1180.95 1112.55 1161.88 1106.85 1158.03 1089.16C1139.71 1107.62 1113.16 1114.4 1088.47 1106.92C1074.61 1102.72 1064.59 1091.33 1062.75 1077.25C1060.16 1057.46 1068.44 1039.5 1085.94 1029.19V1029.17ZM1102.49 1079.97C1107.8 1091.48 1119.89 1096.61 1131.83 1093.57C1143.39 1090.63 1152.19 1082.39 1158.05 1072.21L1157.7 1010.2C1142.88 1019.66 1130.4 1023.65 1116.18 1033.18C1100.79 1043.5 1094.51 1062.69 1102.48 1079.97H1102.49Z" fill="#1A4B50"/>
<path d="M925.2 1102.99C908.47 1111.26 889.88 1111.41 872.03 1107.06L852.53 1102.3C846.49 1100.83 843.85 1112.82 834.52 1106.53L833.21 1050.74C833.17 1049.04 837.64 1048.17 839.51 1048.67C844.63 1050.02 845.88 1071.82 861.1 1087.01C871.26 1097.15 886.27 1100.82 900.21 1099.12C910.45 1097.87 918.3 1091.14 921.15 1082.53C924.38 1072.76 921.87 1062.56 914.53 1055.51C908.08 1049.31 900.05 1045.77 891.64 1042.57C880.32 1038.26 869.32 1034 858.79 1028.38C841.18 1018.98 831.98 1001.62 833.43 981.97C834.78 963.57 845.31 949.02 862.92 942.38C880.53 935.74 900.78 937.22 919.34 943.44C923.74 944.91 926.91 944.5 930.16 940.92C931.87 939.04 938.84 938.46 938.96 941.94L940.5 987.31C940.57 989.46 936.57 991.24 934.49 991.08C931.92 990.88 930.25 988.34 929.25 985.65C920.85 962.84 906.11 943.92 879 948.96C867.54 951.09 859.89 960.06 860.29 972.09C860.62 982.13 866.4 990.55 875.5 995.42C903.61 1010.48 952.46 1013.86 951.77 1059.97C951.49 1078.56 942.56 1094.41 925.21 1102.98L925.2 1102.99Z" fill="#1A4B50"/>
<path d="M1304.89 1094.55C1318.97 1092.7 1328.84 1079.95 1329.24 1090.75C1329.32 1092.83 1328.09 1095.67 1325.99 1097.13C1310.23 1108.06 1290.88 1112.38 1271.97 1108.22C1252.93 1104.04 1244.26 1090.83 1244.18 1071.66L1243.68 951.6L1216.65 951.34C1214.37 951.32 1213.83 943.66 1215.94 943.02C1224.41 940.45 1232.56 938.31 1240.27 934.1C1259.07 923.84 1269.78 905.09 1271.6 883.91C1273.38 881.89 1278.83 881.49 1280.63 883.65L1280.91 941.91L1326 942.07C1328.6 943.46 1328.03 950.35 1324.92 951.88L1281.15 952.34L1280.83 988.04L1281.15 1061.95C1281.18 1067.91 1281.62 1073.81 1282.79 1079.34C1285 1089.82 1294.37 1095.93 1304.9 1094.55H1304.89Z" fill="#1A4B50"/>
<path d="M1598.25 942.07C1599.74 942.07 1600.01 947.27 1599.22 948.38C1595.91 953.05 1586.24 947.67 1578.06 961.09C1573.86 967.97 1571 975.08 1567.97 982.93L1522.16 1101.88C1520.81 1105.38 1518.5 1106.82 1515.19 1107.25C1509.36 1108.02 1506.45 1105.76 1504.28 1100.51L1451.95 974.02C1439 942.71 1428.81 955.82 1424.68 948.32C1423.93 946.97 1424.79 942.4 1426.33 942.4L1503.25 942.24C1505.51 942.24 1506.24 945.54 1505.98 947.58C1505.2 953.51 1492.52 948.84 1488.23 957.07C1486.14 961.09 1486.92 966.94 1488.78 971.44L1525.17 1059.36C1531.91 1045.18 1536.86 1031.62 1542.18 1017.3L1558.16 974.33C1560.19 968.86 1559.63 963.28 1556.32 958.42C1550.15 949.39 1538.27 953.35 1537.35 948.54C1536.94 946.4 1537.35 942.01 1539.77 942.01L1598.23 942.05L1598.25 942.07Z" fill="#1A4B50"/>
<path d="M1344.38 1106.12C1341.58 1106.12 1341.41 1101.58 1342.1 1099.54C1343.63 1095.02 1354.87 1099.16 1360.71 1091.69C1364.3 1087.1 1366.53 1080.9 1366.52 1074.7L1366.38 974.14C1366.38 967.98 1364.64 961.51 1360.81 957.32C1354.23 950.13 1342.36 954.31 1340.17 949.28C1339.32 947.35 1339.58 942.64 1341.72 942.62C1362.6 942.37 1382.27 941.76 1403.14 939.59L1403.09 1071.87C1403.09 1084.54 1406.28 1094.72 1419.35 1096.51L1427.05 1097.57C1428.08 1099.62 1428.11 1103.74 1426.92 1105.92L1344.37 1106.12H1344.38Z" fill="#1A4B50"/>
<path d="M978.79 1095.94C990.75 1093.76 992.66 1077.69 992.61 1067.99L992.25 1002.03C992.19 990.32 992.41 979.27 991.35 967.78C990.68 960.53 985.46 954.19 978.31 953.01L966.07 950.99C965.34 948.31 965.26 944.59 967.01 942.58L1028.49 940.04L1028.59 1070.83C1028.6 1084 1032.3 1095.75 1046.8 1097.02C1048.87 1097.2 1051.79 1098 1052.4 1099.4C1053.15 1101.11 1052.23 1105.89 1050.12 1105.9L968.18 1106.26C967.53 1103.61 967.39 1100.18 967.82 1097.94L978.8 1095.94H978.79Z" fill="#1A4B50"/>
<path d="M1009.4 906.58C1022.54 906.58 1033.19 895.929 1033.19 882.79C1033.19 869.651 1022.54 859 1009.4 859C996.261 859 985.61 869.651 985.61 882.79C985.61 895.929 996.261 906.58 1009.4 906.58Z" fill="#1A4B50"/>
<path d="M1383.12 906.51C1396.21 906.51 1406.82 895.899 1406.82 882.81C1406.82 869.721 1396.21 859.11 1383.12 859.11C1370.03 859.11 1359.42 869.721 1359.42 882.81C1359.42 895.899 1370.03 906.51 1383.12 906.51Z" fill="#1A4B50"/>
</svg>
